<mxfile host="app.diagrams.net" modified="2021-06-20T11:15:11.119Z" agent="5.0 (Macintosh; Intel Mac OS X 10_12_6) AppleWebKit/537.36 (KHTML, like Gecko) Chrome/91.0.4472.77 Safari/537.36" etag="8pAPMA9bjoTvfVHPF_he" version="14.2.5" type="github">
  <diagram id="I71OE4nxUPz9BCzFAyAM" name="Page-1">
    <mxGraphModel dx="1026" dy="514" grid="1" gridSize="10" guides="1" tooltips="1" connect="1" arrows="1" fold="1" page="1" pageScale="1" pageWidth="827" pageHeight="1169" math="0" shadow="0">
      <root>
        <mxCell id="0" />
        <mxCell id="1" parent="0" />
        <mxCell id="FhyLF3LitlM-HpXKTG5y-1" value="block[0]" style="rounded=1;whiteSpace=wrap;html=1;" vertex="1" parent="1">
          <mxGeometry x="100" y="50" width="110" height="40" as="geometry" />
        </mxCell>
        <mxCell id="FhyLF3LitlM-HpXKTG5y-2" value="block[1]" style="rounded=1;whiteSpace=wrap;html=1;" vertex="1" parent="1">
          <mxGeometry x="260" y="50" width="110" height="40" as="geometry" />
        </mxCell>
        <mxCell id="FhyLF3LitlM-HpXKTG5y-3" value="block[2]" style="rounded=1;whiteSpace=wrap;html=1;" vertex="1" parent="1">
          <mxGeometry x="414" y="50" width="110" height="40" as="geometry" />
        </mxCell>
        <mxCell id="FhyLF3LitlM-HpXKTG5y-4" value="[ bs, 32,&amp;nbsp; 432, 448]" style="text;html=1;strokeColor=none;fillColor=none;align=center;verticalAlign=middle;whiteSpace=wrap;rounded=0;" vertex="1" parent="1">
          <mxGeometry x="62.5" y="122" width="185" height="20" as="geometry" />
        </mxCell>
        <mxCell id="FhyLF3LitlM-HpXKTG5y-5" value="[ bs, 48,&amp;nbsp; 216, 224]" style="text;html=1;strokeColor=none;fillColor=none;align=center;verticalAlign=middle;whiteSpace=wrap;rounded=0;" vertex="1" parent="1">
          <mxGeometry x="222.5" y="122" width="185" height="20" as="geometry" />
        </mxCell>
        <mxCell id="FhyLF3LitlM-HpXKTG5y-6" value="[ bs, 88,&amp;nbsp; 108, 112]" style="text;html=1;strokeColor=none;fillColor=none;align=center;verticalAlign=middle;whiteSpace=wrap;rounded=0;" vertex="1" parent="1">
          <mxGeometry x="376.5" y="122" width="185" height="20" as="geometry" />
        </mxCell>
        <mxCell id="FhyLF3LitlM-HpXKTG5y-8" value="deblock[0]" style="rounded=1;whiteSpace=wrap;html=1;" vertex="1" parent="1">
          <mxGeometry x="100" y="180" width="110" height="40" as="geometry" />
        </mxCell>
        <mxCell id="FhyLF3LitlM-HpXKTG5y-9" value="deblock[0]" style="rounded=1;whiteSpace=wrap;html=1;" vertex="1" parent="1">
          <mxGeometry x="260" y="180" width="110" height="40" as="geometry" />
        </mxCell>
        <mxCell id="FhyLF3LitlM-HpXKTG5y-10" value="deblock[0]" style="rounded=1;whiteSpace=wrap;html=1;" vertex="1" parent="1">
          <mxGeometry x="414" y="180" width="110" height="40" as="geometry" />
        </mxCell>
        <mxCell id="FhyLF3LitlM-HpXKTG5y-11" value="[ bs, 32,&amp;nbsp; 432, 448]" style="text;html=1;strokeColor=none;fillColor=none;align=center;verticalAlign=middle;whiteSpace=wrap;rounded=0;" vertex="1" parent="1">
          <mxGeometry x="62.5" y="250" width="185" height="20" as="geometry" />
        </mxCell>
        <mxCell id="FhyLF3LitlM-HpXKTG5y-12" value="[ bs, 32,&amp;nbsp; 216, 224]" style="text;html=1;strokeColor=none;fillColor=none;align=center;verticalAlign=middle;whiteSpace=wrap;rounded=0;" vertex="1" parent="1">
          <mxGeometry x="222.5" y="250" width="185" height="20" as="geometry" />
        </mxCell>
        <mxCell id="FhyLF3LitlM-HpXKTG5y-13" value="[ bs, 32,&amp;nbsp; 108, 112]" style="text;html=1;strokeColor=none;fillColor=none;align=center;verticalAlign=middle;whiteSpace=wrap;rounded=0;" vertex="1" parent="1">
          <mxGeometry x="376.5" y="250" width="185" height="20" as="geometry" />
        </mxCell>
      </root>
    </mxGraphModel>
  </diagram>
</mxfile>
